<svg id="Слой_1" data-name="Слой 1" xmlns="http://www.w3.org/2000/svg" viewBox="0 0 74.09 100"><defs><style>.cls-1{fill:#006e5f;}</style></defs><title>phone</title><path class="cls-1" d="M21.55.09S-.28.38,0,20.15s4.25,37.25,10.77,47S34,102.4,53,99.82c0,0,9.35-2,16.44-6.59l-23-18.05s-6.8,4.3-11.06-1.43S17.86,41.36,17.86,41.36,14.18,32.76,22.4,29Z" transform="translate(0 0)"/><path class="cls-1" d="M24.1.09s1.7-.57,4.82,1.15S32,4.39,32,4.39l.28,19.78a24,24,0,0,1-2,2.29c-1.13,1.15-4.82,2.87-5.39,1.72S24.1.09,24.1.09Z" transform="translate(0 0)"/><path class="cls-1" d="M48.4,73.06l6.31-3.33s1.42-.29,3.68,1.15S72.57,81.76,72.57,81.76s2,1.72,1.42,3.72-2,6.31-2,6.31Z" transform="translate(0 0)"/></svg>